HIERARCHY
ROOT Model_Hips
{
	OFFSET 0.000000 96.915077 0.000000
	CHANNELS 6 Xposition Yposition Zposition Xrotation Yrotation Zrotation
	JOINT Model_Spine
	{
		OFFSET 0.000000 11.137703 -1.289900
		CHANNELS 3 Xrotation Yrotation Zrotation
		JOINT Model_Spine1
		{
			OFFSET 0.000000 12.993942 -1.504922
			CHANNELS 3 Xrotation Yrotation Zrotation
			JOINT Model_Spine2
			{
				OFFSET 0.000000 14.850220 -1.719911
				CHANNELS 3 Xrotation Yrotation Zrotation
				JOINT Model_Neck
				{
					OFFSET 0.000000 16.706543 -1.934903
					CHANNELS 3 Xrotation Yrotation Zrotation
					JOINT Model_Head
					{
						OFFSET 0.000000 10.471298 2.002100
						CHANNELS 3 Xrotation Yrotation Zrotation
						JOINT Model_HeadTop_End
						{
							OFFSET 0.000000 20.842606 3.985100
							CHANNELS 3 Xrotation Yrotation Zrotation
							End Site
							{
								OFFSET 0.000000 21.220154 0.000000
							}
						}
					}
				}
				JOINT Model_LeftShoulder
				{
					OFFSET 7.008500 14.768600 -1.919946
					CHANNELS 3 Xrotation Yrotation Zrotation
					JOINT Model_LeftArm
					{
						OFFSET 14.126271 -3.718048 0.029937
						CHANNELS 3 Xrotation Yrotation Zrotation
						JOINT Model_LeftForeArm
						{
							OFFSET 28.282801 0.000000 0.000000
							CHANNELS 3 Xrotation Yrotation Zrotation
							JOINT Model_LeftHand
							{
								OFFSET 26.204689 0.000000 0.000000
								CHANNELS 3 Xrotation Yrotation Zrotation
								End Site
								{
									OFFSET 26.204704 0.000000 0.000000
								}
							}
						}
					}
				}
				JOINT Model_RightShoulder
				{
					OFFSET -7.008500 14.768555 -1.949840
					CHANNELS 3 Xrotation Yrotation Zrotation
					JOINT Model_RightArm
					{
						OFFSET -14.126281 -3.718018 -0.029932
						CHANNELS 3 Xrotation Yrotation Zrotation
						JOINT Model_RightForeArm
						{
							OFFSET -28.283798 0.000000 -0.000001
							CHANNELS 3 Xrotation Yrotation Zrotation
							JOINT Model_RightHand
							{
								OFFSET -26.204193 0.000000 -0.000001
								CHANNELS 3 Xrotation Yrotation Zrotation
								End Site
								{
									OFFSET -26.204208 0.000000 -0.000001
								}
							}
						}
					}
				}
			}
		}
	}
	JOINT Model_LeftUpLeg
	{
		OFFSET 8.327700 -6.193199 -0.402800
		CHANNELS 3 Xrotation Yrotation Zrotation
		JOINT Model_LeftLeg
		{
			OFFSET 0.735802 -42.108742 -0.610721
			CHANNELS 3 Xrotation Yrotation Zrotation
			JOINT Model_LeftFoot
			{
				OFFSET -0.735806 -36.833748 -0.172876
				CHANNELS 3 Xrotation Yrotation Zrotation
				JOINT Model_LeftToeBase
				{
					OFFSET -0.565857 -11.977769 16.297714
					CHANNELS 3 Xrotation Yrotation Zrotation
					JOINT Model_LeftToe_End
					{
						OFFSET -0.111712 -0.312793 7.857784
						CHANNELS 3 Xrotation Yrotation Zrotation
						End Site
						{
							OFFSET -0.111712 -0.312793 7.857784
						}
					}
				}
			}
		}
	}
	JOINT Model_RightUpLeg
	{
		OFFSET -8.327700 -6.193199 -0.516500
		CHANNELS 3 Xrotation Yrotation Zrotation
		JOINT Model_RightLeg
		{
			OFFSET -0.735785 -42.108738 -0.434061
			CHANNELS 3 Xrotation Yrotation Zrotation
			JOINT Model_RightFoot
			{
				OFFSET 0.735776 -36.833748 -0.021630
				CHANNELS 3 Xrotation Yrotation Zrotation
				JOINT Model_RightToeBase
				{
					OFFSET 0.565817 -11.977745 15.903093
					CHANNELS 3 Xrotation Yrotation Zrotation
					JOINT Model_RightToe_End
					{
						OFFSET 0.111702 -0.312791 7.811342
						CHANNELS 3 Xrotation Yrotation Zrotation
						End Site
						{
							OFFSET 0.111702 -0.312791 7.811342
						}
					}
				}
			}
		}
	}
}
MOTION
Frames: 14
Frame Time: 0.016667
176.993896 9.067909 -34.876205 54.157625 205.467608 231.435769 12.134681 2.530266 1.040756 24.200998 5.707159 2.256776 24.200976 5.707172 2.256782 19.046406 0.525106 -6.533154 19.046370 0.525131 -6.533177 -0.000000 -0.000001 0.000003 0.826479 4.176656 27.061203 -21.500734 -16.600698 -7.566968 0.248538 -108.744753 0.234024 -0.000002 -0.000001 -0.000000 2.759747 8.250644 -10.588923 -57.649051 -5.834117 42.145358 0.058603 119.763351 -0.066514 -0.000000 -0.000000 -0.000003 -68.327915 12.237938 2.024201 120.391319 -4.314740 -3.152157 -18.256998 -2.830331 -6.069246 2.062817 1.449622 -1.075919 0.000001 0.000000 -0.000000 -91.967630 -4.326311 2.102298 85.100298 4.503237 2.817847 -22.066733 -0.132256 15.687910 -0.012185 -0.109713 0.262103 -0.000004 0.000002 0.000002 
176.858047 7.939766 -35.607117 54.828538 200.180619 236.212093 12.152889 2.672263 1.198013 24.205466 6.078911 2.810431 24.205468 6.078906 2.810424 19.258671 0.818227 -6.475681 19.258690 0.818220 -6.475664 -0.000000 0.000001 0.000001 0.899502 3.368714 24.482770 -14.606310 -19.867046 -3.868297 0.354980 -104.424338 0.338084 -0.000000 -0.000001 0.000001 3.074228 7.560852 -12.803213 -40.315465 -8.927984 48.040118 0.085614 116.790675 -0.090144 0.000003 -0.000001 -0.000000 -62.611770 10.585478 1.029190 120.638694 -4.784022 -3.136234 -19.613175 -3.945556 -8.556787 2.940253 1.444447 -1.088195 -0.000001 -0.000001 -0.000001 -87.668080 -5.303866 1.851049 85.578049 4.643678 2.832738 -23.262497 -0.340602 14.450739 -0.012192 -0.109707 0.262088 -0.000002 0.000002 0.000003 
177.073547 7.501831 -36.279865 54.914581 194.673177 241.129447 12.100180 2.777630 1.380774 24.076811 6.263977 3.298513 24.076770 6.263990 3.298506 19.472017 1.058172 -6.179531 19.471980 1.058179 -6.179491 0.000001 -0.000000 0.000005 1.106680 2.229534 21.865782 -8.044703 -21.912763 0.331393 0.504339 -100.515550 0.483750 -0.000002 0.000001 -0.000001 3.006502 6.979977 -13.209584 -24.883247 -9.196749 51.059332 0.144332 108.653454 -0.132454 -0.000001 -0.000001 -0.000002 -57.634413 9.113477 0.129327 120.587208 -5.216055 -3.131760 -20.245263 -4.003719 -9.882717 3.049610 1.003076 -0.719909 0.000001 -0.000002 0.000002 -83.788403 -5.714654 1.061467 85.662334 4.646555 2.835033 -24.265213 -0.473469 13.283316 -0.012198 -0.109711 0.262082 -0.000002 -0.000000 -0.000003 
177.908737 7.290436 -36.911018 54.446733 188.637831 246.250750 11.917674 2.776546 1.568793 23.705765 6.193823 3.640065 23.705775 6.193821 3.640054 19.597375 1.181818 -5.763126 19.597375 1.181800 -5.763101 -0.000001 0.000000 -0.000002 1.311795 1.043494 19.573698 -2.184736 -21.315398 2.321629 0.553408 -99.110382 0.528936 0.000001 0.000000 0.000000 2.058693 6.641521 -9.781902 -17.790249 -3.547551 48.458707 0.546633 93.753581 -0.517613 0.000001 -0.000002 -0.000001 -54.259904 8.193594 -0.652269 119.937603 -5.441505 -3.139858 -19.049959 -2.299034 -9.015755 0.167549 0.148692 -0.044659 -0.000000 -0.000000 -0.000001 -81.114589 -5.237130 -0.446352 85.287438 4.506720 2.824285 -24.751682 -0.236213 12.559347 -0.012190 -0.109702 0.262078 -0.000000 -0.000000 0.000001 
179.077820 7.627525 -37.484371 53.450328 182.449953 251.595318 11.660513 2.730286 1.738854 23.202431 6.009121 3.780228 23.202434 6.009122 3.780222 19.722794 1.209269 -5.343893 19.722805 1.209246 -5.343890 -0.000001 0.000000 0.000002 1.507319 -0.163533 17.453288 3.550704 -20.408023 2.406267 0.554199 -97.716006 0.525640 0.000001 0.000000 -0.000001 0.825813 6.417764 -5.157036 -13.761730 2.862433 43.332445 -0.079255 78.665037 0.117637 0.000000 -0.000001 0.000002 -52.388644 8.327943 -0.923202 118.833899 -5.506881 -3.159319 -16.637571 0.990180 -6.629657 -2.941589 -0.775920 0.547652 -0.000004 -0.000002 -0.000002 -79.179187 -4.192251 -2.154673 84.728114 4.280726 2.806929 -25.029624 0.163126 12.186346 -0.012176 -0.109721 0.262097 0.000001 0.000001 -0.000000 
180.326538 9.035927 -38.015663 52.021118 176.126864 257.084277 11.340025 2.719884 1.845792 22.590984 5.824376 3.596269 22.590979 5.824402 3.596279 19.942308 1.127918 -5.130831 19.942307 1.127929 -5.130868 -0.000000 0.000000 -0.000000 1.646741 -1.225772 15.610401 10.021679 -21.880854 -0.727392 0.785274 -93.585401 0.752827 -0.000003 -0.000001 0.000001 -0.263029 6.288303 -1.322710 -8.685678 5.405051 37.329053 -0.009535 70.951165 0.044841 -0.000001 -0.000000 0.000002 -54.741637 12.964851 -1.405242 115.676931 -5.887506 -3.267854 -7.226326 6.394937 4.307947 -3.734270 -1.149665 0.783944 0.000002 0.000001 0.000003 -77.777693 -2.683412 -3.314778 84.520989 4.039930 2.790909 -25.650408 0.719737 12.102541 -0.012192 -0.109702 0.262088 -0.000000 -0.000001 0.000000 
181.865875 10.671844 -38.360786 49.966406 170.096722 262.816827 11.043107 2.746057 1.840202 22.027370 5.656530 3.235592 22.027358 5.656550 3.235583 20.129261 0.966260 -4.973285 20.129273 0.966228 -4.973296 -0.000000 0.000000 -0.000002 1.710708 -2.274083 13.636402 15.758980 -23.274114 -5.022787 -3.297818 -89.561771 -3.329720 -0.000000 0.000000 0.000001 -1.165727 6.257483 1.833365 -5.033708 6.051722 32.557763 0.007247 66.069410 0.018550 0.000001 -0.000001 0.000000 -57.330552 18.939725 -1.079792 112.516705 -4.048370 -3.358541 0.599901 13.074474 14.901864 -3.864884 -1.356069 0.936703 -0.000001 -0.000002 0.000002 -76.992180 -0.665357 -4.302079 84.230432 3.844529 2.766490 -25.766199 1.206472 12.438157 -0.012205 -0.109733 0.262110 0.000001 0.000000 -0.000001 
183.594635 11.640984 -38.473167 47.138339 164.632435 268.705215 10.857598 2.774227 1.671882 21.677173 5.553408 2.754155 21.677163 5.553400 2.754143 20.228413 0.739957 -4.838349 20.228418 0.739969 -4.838378 -0.000000 0.000001 0.000001 1.663160 -3.319593 11.177716 19.512954 -22.837117 -9.092495 -0.457745 -88.472677 -0.487542 -0.000002 -0.000000 -0.000001 -1.675653 6.372942 3.702771 -3.849262 4.957295 32.425008 0.012350 62.562723 0.005494 -0.000001 0.000001 -0.000001 -60.664244 25.500329 1.680139 111.748240 -1.910496 -3.367853 0.083003 15.758042 19.305941 -4.226281 -1.643477 1.128316 -0.000000 0.000001 -0.000003 -76.553518 2.132819 -5.311378 82.927813 3.726479 2.724156 -24.312533 1.387455 13.748885 -0.012185 -0.109714 0.262089 -0.000001 0.000001 -0.000001 
185.484360 12.727005 -38.378082 43.524236 159.866096 274.746108 10.772860 2.812245 1.503434 21.522623 5.512678 2.337333 21.522611 5.512708 2.337349 20.120561 0.473452 -4.591916 20.120547 0.473466 -4.591982 -0.000000 0.000000 -0.000002 1.497874 -4.521682 8.152486 21.699996 -20.999142 -12.200638 -0.162133 -87.714519 -0.189564 -0.000001 -0.000000 0.000001 -1.864395 6.542028 4.453440 -5.383534 2.863459 34.629879 0.013940 58.758266 -0.000055 -0.000000 -0.000001 -0.000000 -64.533007 31.961197 5.772747 112.678143 -0.328989 -3.344536 -3.529031 14.861954 21.927424 -4.527503 -1.924194 1.315517 0.000000 -0.000000 0.000002 -76.298056 4.898458 -6.136237 81.534147 3.644319 2.682645 -22.465802 1.380298 15.006493 -0.012196 -0.109712 0.262128 -0.000002 0.000000 -0.000000 
187.589340 14.465347 -38.068771 38.992010 156.000578 280.822818 10.832952 2.839993 1.429518 21.645554 5.544155 2.199059 21.645558 5.544144 2.199052 19.665549 0.149447 -4.064452 19.665588 0.149460 -4.064433 -0.000001 0.000001 0.000003 1.178384 -6.126278 4.097949 22.142415 -17.086382 -12.744822 -0.079366 -85.231294 -0.108188 0.000001 0.000000 0.000000 -1.675317 6.667465 3.829377 -11.317100 0.254500 38.530456 0.013792 51.947069 0.002665 0.000000 0.000000 0.000000 -67.460310 37.934611 9.270321 115.045753 0.432970 -3.315597 -6.870958 9.265627 24.421487 -4.774003 -2.194434 1.496242 -0.000003 -0.000001 -0.000001 -76.116263 6.855251 -6.706868 80.838711 3.640925 2.661924 -21.087642 0.953911 15.259969 -0.012202 -0.109730 0.262096 -0.000000 0.000002 -0.000001 
189.909210 16.535522 -37.650597 33.910161 152.942866 286.894883 10.961886 2.888025 1.454780 21.899215 5.667371 2.278117 21.899224 5.667393 2.278115 18.888600 -0.138521 -3.367983 18.888653 -0.138517 -3.367978 -0.000001 -0.000003 -0.000000 0.758078 -7.845565 -0.226214 21.273036 -12.717214 -11.997373 -0.070566 -82.194517 -0.103368 -0.000001 -0.000001 -0.000000 -1.287956 6.758704 2.485849 -18.515562 -1.782848 42.608219 0.014648 43.772148 0.008614 -0.000001 -0.000000 -0.000000 -70.025797 42.177146 12.041496 118.171630 0.508007 -3.281196 -9.408806 2.656859 24.944104 -4.971065 -2.450658 1.668463 -0.000000 0.000001 0.000001 -76.132615 8.239441 -7.058130 80.404604 3.657471 2.649990 -19.697490 0.428057 14.918137 -0.012198 -0.109699 0.262112 0.000000 -0.000002 -0.000000 
192.504089 18.844627 -37.197876 28.478592 150.622514 292.806767 11.110373 3.009642 1.662843 22.187999 5.921564 2.646492 22.187979 5.921572 2.646491 17.721737 -0.347903 -2.420149 17.721768 -0.347895 -2.420164 -0.000000 -0.000003 0.000002 0.242039 -9.616134 -4.352547 19.257058 -8.887942 -10.322901 -0.087549 -79.877730 -0.126565 0.000001 -0.000000 0.000001 -0.798916 6.796779 0.779637 -24.231127 -0.951985 44.890547 0.018570 33.457658 0.010610 -0.000000 -0.000001 -0.000000 -72.333527 42.974218 12.586943 121.491416 0.118987 -3.254228 -11.466794 -1.006252 22.764088 -5.124153 -2.689241 1.830021 -0.000001 -0.000000 -0.000003 -76.433444 8.763143 -7.178350 80.074911 3.636656 2.640250 -18.162842 0.075448 13.688753 -0.012203 -0.109703 0.262097 -0.000002 0.000002 -0.000001 
195.300415 21.208504 -36.815094 23.160473 148.912741 298.483939 11.241552 3.179584 1.927012 22.439198 6.271657 3.110858 22.439205 6.271670 3.110856 16.307485 -0.416008 -1.605942 16.307505 -0.416007 -1.605965 -0.000000 0.000001 -0.000002 -0.243286 -11.114027 -7.809100 16.754982 -6.823770 -8.768229 -0.081779 -75.906665 -0.128880 -0.000000 -0.000002 0.000001 -0.400228 6.764621 -0.644227 -28.774084 -0.654058 46.070801 0.019243 25.582607 0.005382 -0.000000 0.000000 0.000003 -74.231684 42.123498 12.127476 124.952669 -0.926531 -3.223997 -13.853733 -3.740416 19.015726 -5.238772 -2.906660 1.978598 -0.000002 -0.000001 0.000001 -77.067135 9.702407 -7.791403 78.638775 6.268374 2.660137 -13.651754 -0.205567 15.937097 -0.012191 -0.109714 0.262101 -0.000002 -0.000000 0.000001 
198.229431 23.364151 -36.629532 18.442510 147.525338 303.813972 11.290990 3.408608 2.167642 22.527308 6.720689 3.518693 22.527309 6.720714 3.518691 14.694237 -0.139218 -1.165426 14.694261 -0.139221 -1.165435 -0.000001 -0.000003 0.000000 -0.553719 -11.959123 -9.767227 14.321133 -9.048451 -8.703641 -0.035086 -66.596954 -0.091987 0.000000 -0.000002 0.000000 -0.394338 6.659406 -0.741759 -30.507986 -4.028484 45.816595 0.019417 26.451366 0.008358 -0.000001 -0.000002 0.000003 -75.984618 40.760598 11.642837 128.227526 -2.310845 -3.194364 -16.535446 -6.161726 14.659352 -5.320549 -3.099570 2.111737 0.000000 -0.000000 0.000001 -77.089504 11.780332 -9.322957 73.661842 12.935077 2.751708 -3.920523 0.739662 27.858950 -0.012203 -0.109718 0.262096 -0.000002 0.000002 0.000000 
